<?xml version="1.0" standalone="no"?>
<!DOCTYPE svg PUBLIC "-//W3C//DTD SVG 20010904//EN"
 "http://www.w3.org/TR/2001/REC-SVG-20010904/DTD/svg10.dtd">
<svg version="1.0" xmlns="http://www.w3.org/2000/svg"
 width="260.000000pt" height="260.000000pt" viewBox="0 0 260.000000 260.000000"
 preserveAspectRatio="xMidYMid meet">
<metadata>
Created by potrace 1.11, written by Peter Selinger 2001-2013
</metadata>
<g transform="translate(0.000000,260.000000) scale(0.100000,-0.100000)"
fill="#000000" stroke="none">
<path d="M0 1300 l0 -1300 1300 0 1300 0 0 1300 0 1300 -1300 0 -1300 0 0
-1300z m1330 1031 c304 -77 501 -283 526 -552 l7 -69 -264 2 -264 3 -7 48
c-17 123 -148 194 -339 185 -144 -7 -229 -67 -229 -164 0 -56 35 -98 112 -134
57 -27 97 -39 404 -119 264 -69 389 -128 501 -237 46 -45 73 -83 100 -140 37
-77 38 -82 41 -210 4 -152 -8 -218 -63 -331 -89 -182 -294 -306 -577 -349
-124 -19 -406 -13 -508 10 -258 59 -430 179 -527 369 -31 62 -59 173 -66 260
l-6 67 264 0 263 0 7 -47 c17 -114 86 -203 183 -238 27 -10 92 -19 152 -22
163 -8 267 25 328 105 22 29 27 46 27 92 0 117 -80 167 -395 250 -318 84 -432
128 -557 216 -76 54 -123 111 -162 195 -55 118 -63 266 -20 404 66 213 271
362 583 421 108 20 377 12 486 -15z m1130 -61 l0 -79 -87 -3 -88 -3 -3 -242
-2 -243 -100 0 -100 0 0 245 0 245 -90 0 -90 0 0 80 0 80 280 0 280 0 0 -80z"/>
</g>
</svg>
